<?xml version="1.0" encoding="UTF-8" standalone="no"?>
<svg
   xmlns:dc="http://purl.org/dc/elements/1.1/"
   xmlns:cc="http://creativecommons.org/ns#"
   xmlns:rdf="http://www.w3.org/1999/02/22-rdf-syntax-ns#"
   xmlns:svg="http://www.w3.org/2000/svg"
   xmlns="http://www.w3.org/2000/svg"
   xmlns:sodipodi="http://sodipodi.sourceforge.net/DTD/sodipodi-0.dtd"
   xmlns:inkscape="http://www.inkscape.org/namespaces/inkscape"
   viewBox="0 0 400 400"
   id="svg2"
   version="1.1"
   inkscape:version="0.91 r13725"
   width="100%"
   height="100%"
   sodipodi:docname="cadanimal.svg">
  <metadata
     id="metadata148">
    <rdf:RDF>
      <cc:Work
         rdf:about="">
        <dc:format>image/svg+xml</dc:format>
        <dc:type
           rdf:resource="http://purl.org/dc/dcmitype/StillImage" />
        <dc:title />
      </cc:Work>
    </rdf:RDF>
  </metadata>
  <sodipodi:namedview
     pagecolor="#ffffff"
     bordercolor="#666666"
     borderopacity="1"
     objecttolerance="10"
     gridtolerance="10"
     guidetolerance="10"
     inkscape:pageopacity="0"
     inkscape:pageshadow="2"
     inkscape:window-width="1280"
     inkscape:window-height="736"
     id="namedview146"
     showgrid="false"
     inkscape:zoom="1.7306991"
     inkscape:cx="171.42535"
     inkscape:cy="196.39808"
     inkscape:window-x="0"
     inkscape:window-y="27"
     inkscape:window-maximized="1"
     inkscape:current-layer="svg2" />
  <defs
     id="defs4">
    <filter
       id="filter6">
      <feGaussianBlur
         stdDeviation=".36095"
         id="feGaussianBlur8" />
    </filter>
    <filter
       id="filter10">
      <feGaussianBlur
         stdDeviation="1.39738"
         id="feGaussianBlur12" />
    </filter>
    <filter
       height="1.08119"
       width="1.22992"
       x="-.11496"
       y="-.04059"
       id="filter14">
      <feGaussianBlur
         stdDeviation=".89767"
         id="feGaussianBlur16" />
    </filter>
    <linearGradient
       id="linearGradient18">
      <stop
         offset="0"
         stop-color="#ececec"
         id="stop20" />
      <stop
         offset=".38889"
         stop-color="#e2e2e2"
         stop-opacity=".90816"
         id="stop22" />
      <stop
         offset="1"
         stop-color="#b3b3b3"
         id="stop24" />
    </linearGradient>
    <linearGradient
       id="linearGradient26">
      <stop
         offset="0"
         id="stop28" />
      <stop
         offset=".38889"
         stop-color="#e2e2e2"
         stop-opacity=".90816"
         id="stop30" />
      <stop
         offset="1"
         id="stop32" />
    </linearGradient>
    <linearGradient
       id="linearGradient34">
      <stop
         offset="0"
         stop-color="#0b0b0b"
         id="stop36" />
      <stop
         offset="1"
         stop-color="#878787"
         id="stop38" />
    </linearGradient>
    <linearGradient
       id="linearGradient40">
      <stop
         offset="0"
         stop-color="#fff"
         stop-opacity=".40816"
         id="stop42" />
      <stop
         offset="1"
         stop-color="#fff"
         stop-opacity="0"
         id="stop44" />
    </linearGradient>
    <linearGradient
       id="linearGradient46">
      <stop
         offset="0"
         stop-color="#1b1717"
         stop-opacity=".20408"
         id="stop48" />
      <stop
         offset=".5"
         stop-color="#e6e6e6"
         stop-opacity=".72449"
         id="stop50" />
      <stop
         offset="1"
         stop-color="#e6e6e6"
         stop-opacity="0"
         id="stop52" />
    </linearGradient>
    <linearGradient
       id="linearGradient54">
      <stop
         offset="0"
         stop-color="#333"
         id="stop56" />
      <stop
         offset="1"
         stop-color="#808080"
         id="stop58" />
    </linearGradient>
    <linearGradient
       id="linearGradient60">
      <stop
         offset="0"
         stop-color="#2d2929"
         id="stop62" />
      <stop
         offset="1"
         stop-color="#595959"
         id="stop64" />
    </linearGradient>
    <linearGradient
       gradientUnits="userSpaceOnUse"
       x1="-20.6066"
       x2="-19.19239"
       y1="-729.19159"
       y2="-685.35095"
       id="linearGradient66">
      <stop
         offset="0"
         stop-opacity="0"
         id="stop68" />
      <stop
         offset=".5"
         stop-opacity=".36082"
         id="stop70" />
      <stop
         offset="1"
         stop-opacity="0"
         id="stop72" />
    </linearGradient>
    <linearGradient
       id="linearGradient74">
      <stop
         offset="0"
         id="stop76" />
      <stop
         offset="1"
         stop-color="#999"
         id="stop78" />
    </linearGradient>
    <linearGradient
       id="linearGradient80">
      <stop
         offset="0"
         stop-color="#112b00"
         id="stop82" />
      <stop
         offset="1"
         stop-color="#6f0"
         id="stop84" />
    </linearGradient>
    <linearGradient
       id="linearGradient86">
      <stop
         offset="0"
         stop-color="#dbb10e"
         id="stop88" />
      <stop
         offset="1"
         stop-color="#f5ff00"
         id="stop90" />
    </linearGradient>
    <linearGradient
       id="linearGradient92">
      <stop
         offset="0"
         stop-color="#500"
         id="stop94" />
      <stop
         offset="1"
         stop-color="#f00"
         id="stop96" />
    </linearGradient>
    <linearGradient
       id="linearGradient98">
      <stop
         offset="0"
         stop-color="#00112b"
         id="stop100" />
      <stop
         offset="1"
         stop-color="#0055d4"
         id="stop102" />
    </linearGradient>
    <linearGradient
       gradientUnits="userSpaceOnUse"
       x1="241.40979"
       x2="315.47369"
       y1="287.49377"
       y2="367.88477"
       id="linearGradient104">
      <stop
         offset="0"
         stop-color="#fff"
         id="stop106" />
      <stop
         offset="1"
         stop-color="#fff"
         stop-opacity="0"
         id="stop108" />
    </linearGradient>
    <linearGradient
       id="linearGradient110">
      <stop
         offset="0"
         stop-color="#666"
         id="stop112" />
      <stop
         offset="1"
         stop-color="#fff"
         id="stop114" />
    </linearGradient>
  </defs>
  <g
     style="fill:#212121;fill-opacity:1;fill-rule:evenodd;stroke:none;stroke-width:1.33227015"
     id="g3148"
     transform="matrix(0.33820291,0.04573959,-0.04573962,0.33820265,42.176741,11.649241)">
    <path
       style="fill:#212121;fill-opacity:1;stroke-width:1.33227015;stroke:none"
       inkscape:connector-curvature="0"
       id="svg_2"
       d="m 667,974 -5,0.5 0,0.5 -32,0 0,-0.5 L 545,961 Q 460,947.5 416.5,943 373,938.5 326,937 q -47,-1.5 -70,-5.5 -23,-4 -42.5,-11 -19.5,-7 -34.3,-15.3 -14.7,-8.2 -28.2,-19.7 -13.5,-11.5 -23,-25 -9.5,-13.5 -15.5,-28 -6,-14.5 -9,-28.5 -3,-14 -4.5,-26 -1.5,-12 0,-24 1.5,-12 7.5,-33.5 6,-21.5 10.7,-32.3 4.8,-10.7 16.8,-21.4 12,-10.8 15.5,-14.6 3.5,-3.7 23.5,-18.7 20,-15 33,-22 13,-7 26.2,-12.7 13.3,-5.8 23.8,-12.8 10.5,-7 21.2,-15 10.8,-8 14.3,-11.8 3.5,-3.7 7.3,-7 3.7,-3.2 4,-4.2 0.20001,-1 4,-4.5 3.7,-3.5 8,-7 4.2,-3.5 31.4,-35.5 27.3,-32 27.6,-33 0.20001,-1 2,-2.5 1.7,-1.5 10.2,-11.5 8.5,-10 18.2,-19.2 9.8,-9.3 22.3,-17.3 12.5,-8 24.5,-12.5 12,-4.5 19.5,-5.5 7.5,-1 21,-0.5 13.5,0.5 28.5,5.5 15,5 25.8,12.3 10.7,7.2 20.4,16 9.8,8.7 16.6,16.4 6.7,7.8 23.2,39.3 16.5,31.5 37.8,65.3 21.2,33.7 40.7,60.2 19.5,26.5 27.5,36.8 8,10.2 11.8,13.7 3.7,3.5 4.4,5 0.79999,1.5 4.6,5 3.7,3.5 6.4,7 2.8,3.5 13.3,12.5 10.5,9 22.3,26 11.7,17 18.2,30 6.5,13 12.5,31 6,18 7.5,29 1.5,11 1,27 -0.5,16 -3.5,29.5 -3,13.5 -10.5,28.5 -7.5,15 -8.8,17.5 -1.2,2.5 -5,6 -3.7,3.5 -13,12.7 -9.2,9.3 -24.7,18.3 -15.5,9 -30.5,14 -15,5 -30.5,7.5 -15.5,2.5 -20.5,3 z" />
    <path
       style="fill:#212121;fill-opacity:1;stroke-width:1.33227015;stroke:none"
       inkscape:connector-curvature="0"
       id="svg_3"
       d="m 350.2,5 13.8,-5 21,0 0,0.5 3.5,0.5 3.5,0.5 1.5,0.5 q 1.5,0.5 10.5,4 9,3.5 18,10 9,6.5 18.8,17.2 9.7,10.8 18.7,24.8 9,14 15.5,29.5 6.5,15.5 11,31 4.5,15.5 7.5,34 3,18.5 3,48 0,29.5 -1.5,39.5 -1.5,10 -6.5,30 -5,20 -12,35.5 -7,15.5 -14,26 -7,10.5 -14.7,17.5 -7.8,7 -8,8 -0.29999,1 -10.3,7 -10.00001,6 -18.3,8.8 -8.2,2.7 -19.2,3.2 -11,0.5 -15.5,-0.5 -4.5,-1 -14,-4.5 -9.5,-3.5 -22,-12.2 -12.5,-8.8 -12.7,-9.8 -0.29999,-1 -4,-4 -3.8,-3 -5,-5 -1.3,-2 -10.8,-16 -9.5,-14 -17,-31 -7.5,-17 -13.5,-38 -6,-21 -8.5,-45 -2.5,-24 -1.5,-47.5 1,-23.5 4.5,-41 3.5,-17.5 8,-31 4.5,-13.5 11.5,-27.5 7,-14 14.7,-24.2 7.8,-10.3 19,-19.6 11.3,-9.2 25,-14.2 z" />
    <path
       style="fill:#212121;fill-opacity:1;stroke-width:1.33227015;stroke:none"
       inkscape:connector-curvature="0"
       id="svg_4"
       d="m 720.5,36 q 16.5,-0.5 26,2.5 9.5,3 19,9.5 9.5,6.5 16.7,15.8 7.3,9.2 12.8,21.7 5.5,12.5 8.5,25.5 3,13 3.5,39 0.5,26 -1.5,39.5 -2,13.5 -9,37 -7,23.5 -17,44.5 -10,21 -19,35 -9,14 -20.5,27.5 -11.5,13.5 -24.8,24.7 -13.2,11.3 -26.4,19 -13.3,7.8 -25.6,11.6 -12.2,3.7 -27.2,3.7 -15,0 -24,-3 -9,-3 -17.5,-8.5 -8.5,-5.5 -15.7,-14.2 -7.3,-8.8 -13.3,-20.8 -6,-12 -10,-29.5 -4,-17.5 -4,-41.5 0,-24 4.5,-47 4.5,-23 11,-41 6.5,-18 16,-37 9.5,-19 24.2,-40 14.8,-21 15.8,-21.2 1,-0.3 2.5,-2.6 1.5,-2.2 2.5,-2.4 1,-0.3 4,-4 3,-3.8 4,-4 1,-0.3 7,-5.8 6,-5.5 21,-15 15,-9.5 27.5,-14 12.5,-4.5 29,-5 z" />
    <path
       style="fill:#212121;fill-opacity:1;stroke-width:1.33227015;stroke:none"
       inkscape:connector-curvature="0"
       id="svg_5"
       d="M 1,321.5 0.5,315 0,315 0,277 0.5,277 3,261 Q 5.5,245 10.8,231.2 16,217.5 23,207 q 7,-10.5 12.5,-16 5.5,-5.5 14,-10.5 8.5,-5 17.5,-7.5 9,-2.5 22.5,-2 13.5,0.5 25.5,4.5 12,4 24.8,11.7 12.7,7.8 23.2,16.8 10.5,9 10.8,10 0.2,1 1.2,1 1,0 11.8,13.5 10.7,13.5 22.2,33 11.5,19.5 19.5,39.5 8,20 13.5,41 5.5,21 7,34.5 1.5,13.5 1,35.5 -0.5,22 -3.5,38 -3,16 -8.7,28.8 -5.8,12.7 -12.8,22.2 -7,9.5 -14.5,16 -7.5,6.5 -19,11 -11.5,4.5 -27.5,4.5 -16,0 -29,-4.5 -13,-4.5 -25.2,-12.2 Q 97.5,508 84.2,495.8 71,483.5 60.2,469.8 49.5,456 40.5,440.5 31.5,425 23,405 14.5,385 9.5,365 4.5,345 3,336.5 1.5,328 1,321.5 Z" />
    <path
       style="fill:#212121;fill-opacity:1;stroke-width:1.33227015;stroke:none"
       inkscape:connector-curvature="0"
       id="svg_6"
       d="m 1020,340 3.5,15 0.5,4 0.5,4 0.5,0 0,25 -0.5,0 -0.5,4.5 -0.5,4.5 -0.5,3.5 q -0.5,3.5 -1,7 -0.5,3.5 -5,21 -4.5,17.5 -11.5,35 -7,17.5 -16,33.5 -9,16 -22,33.5 -13,17.5 -16.7,21 -3.8,3.5 -4,4.5 -0.29999,1 -2.6,2.5 -2.2,1.5 -2.4,2.5 -0.29999,1 -7,7.2 -6.8,6.3 -20.8,16.8 -14,10.5 -28,17.5 -14,7 -28,11 -14,4 -29.5,4 -15.5,0 -25,-3 -9.5,-3 -19,-9.5 -9.5,-6.5 -14.3,-12.2 -4.7,-5.8 -10.2,-16.8 -5.5,-11 -8.5,-23 -3,-12 -3.5,-32.5 -0.5,-20.5 1,-30 1.5,-9.5 6.5,-28.5 5,-19 13.5,-38.5 8.5,-19.5 18.5,-36 10,-16.5 22.5,-32.5 12.5,-16 16.2,-19 3.8,-3 6.8,-7 3,-4 6.5,-6.8 3.5,-2.7 15.7,-12 12.3,-9.2 25,-16.4 12.8,-7.3 27.8,-12.3 15,-5 31.5,-5.5 16.5,-0.5 26,2 9.5,2.5 19,8.5 9.5,6 15,12.5 5.5,6.5 11.3,16.2 5.7,9.8 9.2,24.8 z" />
  </g>
  <g
     transform="matrix(0.3914554,0,0,0.3914554,98.837013,-54.530486)"
     id="g116">
    <g
       font-size="225.1601"
       id="g118"
       style="font-size:225.16009521px;font-family:'Eras Bold ITC'">
      <path
         d="m 154.90469,698.16998 -5.66579,20.77612 c -3.57177,0.7411 -7.03649,1.64512 -10.45138,2.77018 l -15.23542,-15.23585 -24.30208,14.10258 5.54044,20.77616 c -2.69898,2.40868 -5.26793,4.98596 -7.68116,7.68089 l -20.77585,-5.54032 -14.10257,24.30177 15.23542,15.23585 c -1.14336,3.46612 -2.14812,7.07558 -2.89596,10.70286 l 0,0.12575 -20.65011,5.28848 0,28.07929 20.65011,5.28849 c 0.7708,3.78849 1.82034,7.46759 3.02209,11.0806 l -15.36155,14.98401 14.10257,24.30177 20.52437,-5.79212 c 2.51796,2.83749 5.2255,5.53545 8.05878,8.05863 l -5.66657,20.65022 24.30208,14.10257 14.98355,-15.36174 c 3.57489,1.18926 7.20778,2.2546 10.95474,3.02197 l 5.4143,20.65023 28.07979,0 5.28779,-20.65023 c 3.76291,-0.7706 7.49196,-1.82598 11.08087,-3.02197 l 14.85819,15.36174 24.42743,-14.10257 -5.79153,-20.65022 c 2.81421,-2.50597 5.55406,-5.11646 8.05839,-7.93273 l 20.65011,5.66622 13.97683,-24.30177 -15.2362,-14.85812 c 1.19358,-3.57224 2.25051,-7.21023 3.02209,-10.9547 l 20.65012,-5.54028 0,-28.07929 -20.65012,-5.54028 c -0.74394,-3.58575 -1.76506,-7.14904 -2.89596,-10.57697 l 15.11007,-15.23584 -13.97683,-24.30177 -20.90237,5.66621 c -2.41713,-2.70485 -4.97557,-5.26368 -7.68039,-7.68089 l 5.66579,-20.90206 -24.42743,-14.10257 -15.10968,15.23584 c -3.38024,-1.11517 -6.91776,-1.90524 -10.45138,-2.64424 l -5.66579,-20.90206 -28.07979,0 z"
         id="path120"
         inkscape:connector-curvature="0" />
      <g
         transform="matrix(3.23614,0,0,3.23614,7655.9298,1739.1813)"
         id="g122"
         style="fill:#ffffff">
        <path
           d="m -2317.6077,-319.27966 -2.3986,9.00294 -6.6044,-6.6044 -7.0267,4.05385 2.4323,9.01983 -9.0198,-2.41542 -4.0539,7.00979 6.7058,6.67198 -9.1212,2.34785 0,8.10772 9.2056,2.34786 -6.7902,6.65508 4.0539,7.00979 9.1549,-2.58433 -2.5674,9.18874 7.0267,4.05385 6.6382,-6.8071 2.3648,9.22253 8.1077,0 2.3478,-9.22253 6.6551,6.8071 7.0267,-4.05385 -2.5675,-9.15496 9.155,2.55055 4.0538,-7.00979 -6.7226,-6.55374 9.138,-2.4492 0,-8.10772 -9.0367,-2.39853 6.6213,-6.6213 -4.0538,-7.00979 -9.003,2.43231 2.4155,-9.03672 -7.0267,-4.05385 -6.5875,6.62129 -2.4154,-9.01983 -8.1077,0 z"
           id="path124"
           inkscape:connector-curvature="0"
           style="fill:#ffffff" />
        <path
           d="m 1183.5,128.11218 c 0,28.3046 -22.9454,51.25 -51.25,51.25 -28.3046,0 -51.25,-22.9454 -51.25,-51.25 0,-28.3046 22.9454,-51.25 51.25,-51.25 28.3046,0 51.25,22.94541 51.25,51.25 z"
           transform="matrix(0.5413,0,0,0.5413,-2926.4463,-355.48711)"
           id="path126"
           inkscape:connector-curvature="0"
           style="fill:#ffffff" />
      </g>
      <path
         d="m 168.9444,772.19655 c -22.64836,0 -40.99755,18.34919 -40.99755,40.99755 0,22.64836 18.34919,40.99754 40.99755,40.99754 22.64836,0 40.99754,-18.34918 40.99754,-40.99754 0,-22.64836 -18.34918,-40.99755 -40.99754,-40.99755 z m 0,8.39416 c 17.97437,0 32.60339,14.62901 32.60339,32.60339 0,17.97438 -14.62902,32.48173 -32.60339,32.48173 -17.97437,0 -32.60339,-14.50736 -32.60339,-32.48173 0,-17.97437 14.62901,-32.60339 32.60339,-32.60339 z"
         id="path128"
         inkscape:connector-curvature="0"
         style="opacity:0.95999995;stroke:#464646;stroke-width:0.47631213" />
      <path
         d="m 279.03704,865.29664 -4.13391,15.24375 c -5.64087,1.33731 -10.84729,3.60591 -15.63133,6.58841 l -13.56418,-8.00945 -11.49702,11.49741 8.00894,13.56437 c -3.02559,4.85287 -5.2578,10.15614 -6.58841,15.88967 l -15.24359,3.8755 0,16.27725 15.24359,3.8755 c 1.32438,5.66392 3.6072,10.95692 6.58841,15.7605 l -8.00894,13.56437 11.49702,11.62658 13.56418,-8.00945 c 4.84749,3.01921 10.16486,5.13109 15.88982,6.45924 l 3.87542,15.37292 16.27756,0 3.87543,-15.37292 c 5.59532,-1.3083 10.87337,-3.40258 15.63133,-6.33004 l 13.82267,7.88025 11.49741,-11.62658 -8.00973,-13.56437 c 2.93217,-4.72923 5.13012,-9.93763 6.45956,-15.50213 l 15.37284,-4.13387 0,-16.27725 -15.37284,-4.13388 c -1.32632,-5.59567 -3.5126,-10.74927 -6.45956,-15.50212 l 8.00973,-13.69354 -11.49741,-11.4974 -13.69343,7.88023 c -4.72058,-2.92152 -9.95075,-5.13361 -15.50208,-6.4592 l -4.13392,-15.24375 -16.27756,0 z"
         id="path130"
         inkscape:connector-curvature="0" />
      <path
         d="m 1183.5,128.11218 a 51.25,51.25 0 1 1 -102.5,0 51.25,51.25 0 1 1 102.5,0 z"
         transform="matrix(0.95792,0,0,0.95792,-797.42696,809.36395)"
         id="path132"
         inkscape:connector-curvature="0"
         style="fill:#ffffff" />
      <g
         transform="matrix(1.74025,0,0,1.74025,-2299.7058,636.91733)"
         id="g134"
         style="fill:#ffffff">
        <path
           d="m 1482.1499,205.17284 -9.2801,-36.15087 9.2801,-34.97045 8.7001,0 9.2801,34.67533 -9.2801,36.44599 -8.7001,0 z"
           id="path136"
           inkscape:connector-curvature="0"
           style="fill:#ffffff" />
        <path
           d="m 1450.9393,165.26211 36.151,-9.28011 34.9704,9.28011 0,8.70014 -34.6754,9.28011 -36.446,-9.28011 0,-8.70014 z"
           id="path138"
           inkscape:connector-curvature="0"
           style="fill:#ffffff" />
        <path
           d="m 1458.2788,191.68142 19.0005,-32.12458 31.2899,-18.1658 6.152,6.1519 -17.9572,31.08121 -32.3332,19.20917 -6.152,-6.1519 z"
           id="path140"
           inkscape:connector-curvature="0"
           style="fill:#ffffff" />
        <path
           d="m 1464.4308,141.39103 32.1245,19.0005 18.1659,31.28989 -6.152,6.15191 -31.0812,-17.95713 -19.2092,-32.33326 6.152,-6.15191 z"
           id="path142"
           inkscape:connector-curvature="0"
           style="fill:#ffffff" />
      </g>
      <path
         d="m 287.17583,907.57156 c -13.54779,0 -24.5742,11.02641 -24.5742,24.5742 0,13.54779 11.02641,24.45254 24.5742,24.45254 13.54779,0 24.57419,-10.90475 24.57419,-24.45254 0,-13.54779 -11.0264,-24.5742 -24.57419,-24.5742 z m 0,4.37956 c 11.14783,0 20.19463,9.04681 20.19463,20.19464 0,11.14783 -9.0468,20.19463 -20.19463,20.19463 -11.14783,0 -20.19464,-9.0468 -20.19464,-20.19463 0,-11.14783 9.04681,-20.19464 20.19464,-20.19464 z"
         id="path144"
         inkscape:connector-curvature="0"
         style="opacity:0.95999995;stroke:#464646;stroke-width:0.28491846" />
    </g>
  </g>
  <circle
     style="opacity:0.54000005;fill:#ff0000;fill-opacity:1;stroke:none;stroke-width:3.43099999;stroke-miterlimit:4;stroke-dasharray:none;stroke-opacity:1"
     id="path3409"
     cx="-222.45842"
     cy="199.18286"
     r="199.43663" />
</svg>
